<svg xmlns="http://www.w3.org/2000/svg" viewBox="0 0 240 240" width="240" height="240"><defs><linearGradient id="g" gradientUnits="userSpaceOnUse" x1="0" y1="0" x2="240" y2="240"><stop offset="0" stop-color="#F7E6AE"/><stop offset=".38" stop-color="#E8C46A"/><stop offset=".72" stop-color="#A9853D"/><stop offset="1" stop-color="#E3BE63"/></linearGradient><radialGradient id="f" cx=".42" cy=".34" r=".75"><stop offset="0" stop-color="#18211B"/><stop offset=".6" stop-color="#0A100C"/><stop offset="1" stop-color="#050806"/></radialGradient></defs><circle cx="120" cy="120" r="117" fill="url(#f)"/><g fill="none" stroke="url(#g)" stroke-linecap="round" stroke-linejoin="round"><circle cx="120" cy="120" r="116" stroke-width="2.20"/><circle cx="120" cy="120" r="108" stroke-width="0.60" opacity=".55"/><path d="M120.00 32.00L120.00 20.00" stroke-width="1.60" opacity="1"/><path d="M129.93 25.52L130.45 20.55" stroke-width="0.70" opacity="0.6"/><path d="M139.75 27.08L140.79 22.19" stroke-width="0.70" opacity="0.6"/><path d="M149.36 29.65L150.90 24.89" stroke-width="0.70" opacity="0.6"/><path d="M158.64 33.21L160.67 28.65" stroke-width="0.70" opacity="0.6"/><path d="M164.00 43.79L170.00 33.40" stroke-width="1.60" opacity="1"/><path d="M175.84 43.14L178.78 39.10" stroke-width="0.70" opacity="0.6"/><path d="M183.57 49.40L186.91 45.69" stroke-width="0.70" opacity="0.6"/><path d="M190.60 56.43L194.31 53.09" stroke-width="0.70" opacity="0.6"/><path d="M196.86 64.16L200.90 61.22" stroke-width="0.70" opacity="0.6"/><path d="M196.21 76.00L206.60 70.00" stroke-width="1.60" opacity="1"/><path d="M206.79 81.36L211.35 79.33" stroke-width="0.70" opacity="0.6"/><path d="M210.35 90.64L215.11 89.10" stroke-width="0.70" opacity="0.6"/><path d="M212.92 100.25L217.81 99.21" stroke-width="0.70" opacity="0.6"/><path d="M214.48 110.07L219.45 109.55" stroke-width="0.70" opacity="0.6"/><path d="M204.00 120.00L220.00 120.00" stroke-width="2.40" opacity="1"/><path d="M214.48 129.93L219.45 130.45" stroke-width="0.70" opacity="0.6"/><path d="M212.92 139.75L217.81 140.79" stroke-width="0.70" opacity="0.6"/><path d="M210.35 149.36L215.11 150.90" stroke-width="0.70" opacity="0.6"/><path d="M206.79 158.64L211.35 160.67" stroke-width="0.70" opacity="0.6"/><path d="M196.21 164.00L206.60 170.00" stroke-width="1.60" opacity="1"/><path d="M196.86 175.84L200.90 178.78" stroke-width="0.70" opacity="0.6"/><path d="M190.60 183.57L194.31 186.91" stroke-width="0.70" opacity="0.6"/><path d="M183.57 190.60L186.91 194.31" stroke-width="0.70" opacity="0.6"/><path d="M175.84 196.86L178.78 200.90" stroke-width="0.70" opacity="0.6"/><path d="M164.00 196.21L170.00 206.60" stroke-width="1.60" opacity="1"/><path d="M158.64 206.79L160.67 211.35" stroke-width="0.70" opacity="0.6"/><path d="M149.36 210.35L150.90 215.11" stroke-width="0.70" opacity="0.6"/><path d="M139.75 212.92L140.79 217.81" stroke-width="0.70" opacity="0.6"/><path d="M129.93 214.48L130.45 219.45" stroke-width="0.70" opacity="0.6"/><path d="M120.00 204.00L120.00 220.00" stroke-width="2.40" opacity="1"/><path d="M110.07 214.48L109.55 219.45" stroke-width="0.70" opacity="0.6"/><path d="M100.25 212.92L99.21 217.81" stroke-width="0.70" opacity="0.6"/><path d="M90.64 210.35L89.10 215.11" stroke-width="0.70" opacity="0.6"/><path d="M81.36 206.79L79.33 211.35" stroke-width="0.70" opacity="0.6"/><path d="M76.00 196.21L70.00 206.60" stroke-width="1.60" opacity="1"/><path d="M64.16 196.86L61.22 200.90" stroke-width="0.70" opacity="0.6"/><path d="M56.43 190.60L53.09 194.31" stroke-width="0.70" opacity="0.6"/><path d="M49.40 183.57L45.69 186.91" stroke-width="0.70" opacity="0.6"/><path d="M43.14 175.84L39.10 178.78" stroke-width="0.70" opacity="0.6"/><path d="M43.79 164.00L33.40 170.00" stroke-width="1.60" opacity="1"/><path d="M33.21 158.64L28.65 160.67" stroke-width="0.70" opacity="0.6"/><path d="M29.65 149.36L24.89 150.90" stroke-width="0.70" opacity="0.6"/><path d="M27.08 139.75L22.19 140.79" stroke-width="0.70" opacity="0.6"/><path d="M25.52 129.93L20.55 130.45" stroke-width="0.70" opacity="0.6"/><path d="M36.00 120.00L20.00 120.00" stroke-width="2.40" opacity="1"/><path d="M25.52 110.07L20.55 109.55" stroke-width="0.70" opacity="0.6"/><path d="M27.08 100.25L22.19 99.21" stroke-width="0.70" opacity="0.6"/><path d="M29.65 90.64L24.89 89.10" stroke-width="0.70" opacity="0.6"/><path d="M33.21 81.36L28.65 79.33" stroke-width="0.70" opacity="0.6"/><path d="M43.79 76.00L33.40 70.00" stroke-width="1.60" opacity="1"/><path d="M43.14 64.16L39.10 61.22" stroke-width="0.70" opacity="0.6"/><path d="M49.40 56.43L45.69 53.09" stroke-width="0.70" opacity="0.6"/><path d="M56.43 49.40L53.09 45.69" stroke-width="0.70" opacity="0.6"/><path d="M64.16 43.14L61.22 39.10" stroke-width="0.70" opacity="0.6"/><path d="M76.00 43.79L70.00 33.40" stroke-width="1.60" opacity="1"/><path d="M81.36 33.21L79.33 28.65" stroke-width="0.70" opacity="0.6"/><path d="M90.64 29.65L89.10 24.89" stroke-width="0.70" opacity="0.6"/><path d="M100.25 27.08L99.21 22.19" stroke-width="0.70" opacity="0.6"/><path d="M110.07 25.52L109.55 20.55" stroke-width="0.70" opacity="0.6"/><circle cx="120" cy="120" r="80" stroke-width="0.60" opacity=".32"/><path d="M112.98 56.00V69.00M117.66 56.00V69.00M122.34 56.00V69.00M127.02 56.00V69.00M108.56 56.00H131.44M108.56 69.00H131.44" stroke-width="1.5"/><g transform="translate(90 98) scale(2.5)" stroke-width="0.80"><path d="M14 9a2 2 0 0 1-2 2H6l-4 4V4a2 2 0 0 1 2-2h8a2 2 0 0 1 2 2z"/><path d="M18 9h2a2 2 0 0 1 2 2v11l-4-4h-6a2 2 0 0 1-2-2v-1"/></g></g></svg>